<region>
sample=$SAMPLE_DIR/black_cortex_tom_13_ctr_a_01.wav
pan=$TOM_2_PAN
hivel=10
seq_length=2

<region>
sample=$SAMPLE_DIR/black_cortex_tom_13_ctr_b_01.wav
pan=$TOM_2_PAN
hivel=10
seq_length=2
seq_position=2

<region>
sample=$SAMPLE_DIR/black_cortex_tom_13_ctr_a_02.wav
pan=$TOM_2_PAN
lovel=11
hivel=21
seq_length=2

<region>
sample=$SAMPLE_DIR/black_cortex_tom_13_ctr_b_02.wav
pan=$TOM_2_PAN
lovel=11
hivel=21
seq_length=2
seq_position=2

<region>
sample=$SAMPLE_DIR/black_cortex_tom_13_ctr_a_03.wav
pan=$TOM_2_PAN
lovel=22
hivel=31
seq_length=2

<region>
sample=$SAMPLE_DIR/black_cortex_tom_13_ctr_b_03.wav
pan=$TOM_2_PAN
lovel=22
hivel=31
seq_length=2
seq_position=2

<region>
sample=$SAMPLE_DIR/black_cortex_tom_13_ctr_a_04.wav
pan=$TOM_2_PAN
lovel=32
hivel=42
seq_length=2

<region>
sample=$SAMPLE_DIR/black_cortex_tom_13_ctr_b_04.wav
pan=$TOM_2_PAN
lovel=32
hivel=42
seq_length=2
seq_position=2

<region>
sample=$SAMPLE_DIR/black_cortex_tom_13_ctr_a_05.wav
pan=$TOM_2_PAN
lovel=43
hivel=52
seq_length=2

<region>
sample=$SAMPLE_DIR/black_cortex_tom_13_ctr_b_05.wav
pan=$TOM_2_PAN
lovel=43
hivel=52
seq_length=2
seq_position=2

<region>
sample=$SAMPLE_DIR/black_cortex_tom_13_ctr_a_06.wav
pan=$TOM_2_PAN
lovel=53
hivel=63
seq_length=2

<region>
sample=$SAMPLE_DIR/black_cortex_tom_13_ctr_b_06.wav
pan=$TOM_2_PAN
lovel=53
hivel=63
seq_length=2
seq_position=2

<region>
sample=$SAMPLE_DIR/black_cortex_tom_13_ctr_a_07.wav
pan=$TOM_2_PAN
lovel=64
hivel=74
seq_length=2

<region>
sample=$SAMPLE_DIR/black_cortex_tom_13_ctr_b_07.wav
pan=$TOM_2_PAN
lovel=64
hivel=74
seq_length=2
seq_position=2

<region>
sample=$SAMPLE_DIR/black_cortex_tom_13_ctr_a_08.wav
pan=$TOM_2_PAN
lovel=75
hivel=84
seq_length=2

<region>
sample=$SAMPLE_DIR/black_cortex_tom_13_ctr_b_08.wav
pan=$TOM_2_PAN
lovel=75
hivel=84
seq_length=2
seq_position=2

<region>
sample=$SAMPLE_DIR/black_cortex_tom_13_ctr_a_09.wav
pan=$TOM_2_PAN
lovel=85
hivel=95
seq_length=2

<region>
sample=$SAMPLE_DIR/black_cortex_tom_13_ctr_b_09.wav
pan=$TOM_2_PAN
lovel=85
hivel=95
seq_length=2
seq_position=2

<region>
sample=$SAMPLE_DIR/black_cortex_tom_13_ctr_a_10.wav
pan=$TOM_2_PAN
lovel=96
hivel=105
seq_length=2

<region>
sample=$SAMPLE_DIR/black_cortex_tom_13_ctr_b_10.wav
pan=$TOM_2_PAN
lovel=96
hivel=105
seq_length=2
seq_position=2

<region>
sample=$SAMPLE_DIR/black_cortex_tom_13_ctr_a_11.wav
pan=$TOM_2_PAN
lovel=106
hivel=116
seq_length=2

<region>
sample=$SAMPLE_DIR/black_cortex_tom_13_ctr_b_11.wav
pan=$TOM_2_PAN
lovel=106
hivel=116
seq_length=2
seq_position=2

<region>
sample=$SAMPLE_DIR/black_cortex_tom_13_ctr_a_12.wav
pan=$TOM_2_PAN
lovel=117
seq_length=2

<region>
sample=$SAMPLE_DIR/black_cortex_tom_13_ctr_b_12.wav
pan=$TOM_2_PAN
lovel=117
seq_length=2
seq_position=2
